<svg id="visual" viewBox="0 0 960 540" width="960" height="540" xmlns="http://www.w3.org/2000/svg" xmlns:xlink="http://www.w3.org/1999/xlink" version="1.1"><rect x="0" y="0" width="960" height="540" fill="#E1DDBF"></rect><path d="M0 391L22.8 383.5C45.7 376 91.3 361 137 359.5C182.7 358 228.3 370 274 369.7C319.7 369.3 365.3 356.7 411.2 346C457 335.3 503 326.7 548.8 333.3C594.7 340 640.3 362 686 369.5C731.7 377 777.3 370 823 361.8C868.7 353.7 914.3 344.3 937.2 339.7L960 335L960 541L937.2 541C914.3 541 868.7 541 823 541C777.3 541 731.7 541 686 541C640.3 541 594.7 541 548.8 541C503 541 457 541 411.2 541C365.3 541 319.7 541 274 541C228.3 541 182.7 541 137 541C91.3 541 45.7 541 22.8 541L0 541Z" fill="#294557"></path><path d="M0 427L22.8 427.5C45.7 428 91.3 429 137 421.3C182.7 413.7 228.3 397.3 274 391.5C319.7 385.7 365.3 390.3 411.2 389.2C457 388 503 381 548.8 384.7C594.7 388.3 640.3 402.7 686 400.5C731.7 398.3 777.3 379.7 823 379C868.7 378.3 914.3 395.7 937.2 404.3L960 413L960 541L937.2 541C914.3 541 868.7 541 823 541C777.3 541 731.7 541 686 541C640.3 541 594.7 541 548.8 541C503 541 457 541 411.2 541C365.3 541 319.7 541 274 541C228.3 541 182.7 541 137 541C91.3 541 45.7 541 22.8 541L0 541Z" fill="#2b5463"></path><path d="M0 440L22.8 441C45.7 442 91.3 444 137 441.5C182.7 439 228.3 432 274 427.7C319.7 423.3 365.3 421.7 411.2 418.7C457 415.7 503 411.3 548.8 408.7C594.7 406 640.3 405 686 409.5C731.7 414 777.3 424 823 426.7C868.7 429.3 914.3 424.7 937.2 422.3L960 420L960 541L937.2 541C914.3 541 868.7 541 823 541C777.3 541 731.7 541 686 541C640.3 541 594.7 541 548.8 541C503 541 457 541 411.2 541C365.3 541 319.7 541 274 541C228.3 541 182.7 541 137 541C91.3 541 45.7 541 22.8 541L0 541Z" fill="#31646d"></path><path d="M0 466L22.8 464C45.7 462 91.3 458 137 456.2C182.7 454.3 228.3 454.7 274 458C319.7 461.3 365.3 467.7 411.2 471.7C457 475.7 503 477.3 548.8 471.8C594.7 466.3 640.3 453.7 686 453C731.7 452.3 777.3 463.7 823 464.2C868.7 464.7 914.3 454.3 937.2 449.2L960 444L960 541L937.2 541C914.3 541 868.7 541 823 541C777.3 541 731.7 541 686 541C640.3 541 594.7 541 548.8 541C503 541 457 541 411.2 541C365.3 541 319.7 541 274 541C228.3 541 182.7 541 137 541C91.3 541 45.7 541 22.8 541L0 541Z" fill="#3c7475"></path><path d="M0 492L22.8 491C45.7 490 91.3 488 137 489.5C182.7 491 228.3 496 274 499.7C319.7 503.3 365.3 505.7 411.2 504.2C457 502.7 503 497.3 548.8 497.5C594.7 497.7 640.3 503.3 686 504.7C731.7 506 777.3 503 823 501C868.7 499 914.3 498 937.2 497.5L960 497L960 541L937.2 541C914.3 541 868.7 541 823 541C777.3 541 731.7 541 686 541C640.3 541 594.7 541 548.8 541C503 541 457 541 411.2 541C365.3 541 319.7 541 274 541C228.3 541 182.7 541 137 541C91.3 541 45.7 541 22.8 541L0 541Z" fill="#4c837a"></path></svg>