<svg id="visual" viewBox="0 0 960 540" width="960" height="540" xmlns="http://www.w3.org/2000/svg" xmlns:xlink="http://www.w3.org/1999/xlink" version="1.1"><rect x="0" y="0" width="960" height="540" fill="#E1DDBF"></rect><path d="M0 147L22.8 154.5C45.7 162 91.3 177 137 178.5C182.7 180 228.3 168 274 168.3C319.7 168.7 365.3 181.3 411.2 192C457 202.7 503 211.3 548.8 204.7C594.7 198 640.3 176 686 168.5C731.7 161 777.3 168 823 176.2C868.7 184.3 914.3 193.7 937.2 198.3L960 203L960 0L937.2 0C914.3 0 868.7 0 823 0C777.3 0 731.7 0 686 0C640.3 0 594.7 0 548.8 0C503 0 457 0 411.2 0C365.3 0 319.7 0 274 0C228.3 0 182.7 0 137 0C91.3 0 45.7 0 22.8 0L0 0Z" fill="#294557"></path><path d="M0 111L22.8 110.5C45.7 110 91.3 109 137 116.7C182.7 124.3 228.3 140.7 274 146.5C319.7 152.3 365.3 147.7 411.2 148.8C457 150 503 157 548.8 153.3C594.7 149.7 640.3 135.3 686 137.5C731.7 139.7 777.3 158.3 823 159C868.7 159.7 914.3 142.3 937.2 133.7L960 125L960 0L937.2 0C914.3 0 868.7 0 823 0C777.3 0 731.7 0 686 0C640.3 0 594.7 0 548.8 0C503 0 457 0 411.2 0C365.3 0 319.7 0 274 0C228.3 0 182.7 0 137 0C91.3 0 45.7 0 22.8 0L0 0Z" fill="#2b5463"></path><path d="M0 98L22.8 97C45.7 96 91.3 94 137 96.5C182.7 99 228.3 106 274 110.3C319.7 114.7 365.3 116.3 411.2 119.3C457 122.3 503 126.7 548.8 129.3C594.7 132 640.3 133 686 128.5C731.7 124 777.3 114 823 111.3C868.7 108.7 914.3 113.3 937.2 115.7L960 118L960 0L937.2 0C914.3 0 868.7 0 823 0C777.3 0 731.7 0 686 0C640.3 0 594.7 0 548.8 0C503 0 457 0 411.2 0C365.3 0 319.7 0 274 0C228.3 0 182.7 0 137 0C91.3 0 45.7 0 22.8 0L0 0Z" fill="#31646d"></path><path d="M0 72L22.8 74C45.7 76 91.3 80 137 81.8C182.7 83.7 228.3 83.3 274 80C319.7 76.7 365.3 70.3 411.2 66.3C457 62.3 503 60.7 548.8 66.2C594.7 71.7 640.3 84.3 686 85C731.7 85.7 777.3 74.3 823 73.8C868.7 73.3 914.3 83.7 937.2 88.8L960 94L960 0L937.2 0C914.3 0 868.7 0 823 0C777.3 0 731.7 0 686 0C640.3 0 594.7 0 548.8 0C503 0 457 0 411.2 0C365.3 0 319.7 0 274 0C228.3 0 182.7 0 137 0C91.3 0 45.7 0 22.8 0L0 0Z" fill="#3c7475"></path><path d="M0 46L22.8 47C45.7 48 91.3 50 137 48.5C182.7 47 228.3 42 274 38.3C319.7 34.7 365.3 32.3 411.2 33.8C457 35.3 503 40.7 548.8 40.5C594.7 40.3 640.3 34.7 686 33.3C731.7 32 777.3 35 823 37C868.7 39 914.3 40 937.2 40.5L960 41L960 0L937.2 0C914.3 0 868.7 0 823 0C777.3 0 731.7 0 686 0C640.3 0 594.7 0 548.8 0C503 0 457 0 411.2 0C365.3 0 319.7 0 274 0C228.3 0 182.7 0 137 0C91.3 0 45.7 0 22.8 0L0 0Z" fill="#4c837a"></path></svg>